<svg xmlns="http://www.w3.org/2000/svg" xmlns:svg="http://www.w3.org/2000/svg" xmlns:xlink="http://www.w3.org/1999/xlink" version="1.0" height="719.0046420097351pt" width="480.0025701522827pt" viewBox="430 533 488.0025701522827 725.0046420097351" ><defs><style type="text/css">
            @font-face {
                font-family: 'noto_regular';
                src: url('https://app.creately.com/diagram/assets/fonts/noto/noto-regular.woff') format('woff'),
                     url('https://app.creately.com/diagram/assets/fonts/noto/noto-regular.woff2') format('woff2');
                font-weight: normal;
                font-style: normal;
            }
        p {
            margin: 0;
        }
        </style></defs><defs><style>
            span{ display: inline-block; }
        </style></defs><g id="6n3wcvmg6t"><g transform="translate(535 560)"><rect x="0" y="0" width="380.0025701522827" height="695.0046420097351" fill="rgba(255,255,255,1)" stroke="#cccccc" stroke-width="1.5" stroke-linecap="round" stroke-linejoin="round"/></g><g transform="translate(702.5012850761414, 570) rotate(0, 22.5, 0)" width="45" height="18"><text text-decoration="none" x="0.5" fill="rgb(84, 84, 84)" font-size="10pt" font-family="noto_regular"  y="17">System</text><text text-decoration="none" x="44.5" fill="#4b4b4b" font-size="10pt" font-family="noto_regular"  y="17"></text></g><g transform="translate(650.5012850761414, 536) rotate(0, 74.5, 19)" width="149" height="19"><text text-decoration="none" x="6.5" fill="rgb(75, 75, 75)" font-size="10pt" font-family="Lato"  y="17">Fitness&#160;</text><text text-decoration="none" x="51.5" fill="rgb(75, 75, 75)" font-size="10pt" font-family="Lato"  y="17">Tracker&#160;</text><text text-decoration="none" x="98.5" fill="rgb(75, 75, 75)" font-size="10pt" font-family="Lato"  y="17">System</text><text text-decoration="none" x="142.5" fill="#4b4b4b" font-size="10pt" font-family="noto_regular"  y="17"></text></g></g><g id="cup5vknpr0"><g transform="translate(435 815)"><ellipse cx="29.65326431304216" cy="15.522736543387174" rx="14.82663215652108" ry="15.522736543387174" fill="rgba(255,255,255,1)" stroke="#ea5b67" stroke-width="1.5" stroke-linecap="round" stroke-linejoin="round"/><path d="M 29.65326431304216,31.045473086774347 L 29.65326431304216,74.50913540825843 L 59.30652862608432,124.18189234709739 M 29.65326431304216,74.50913540825843 L 0,124.18189234709739 M 2.9653264313042165,46.56820963016152 L 56.34120219478011,46.56820963016152" fill="none" stroke="#ea5b67" stroke-width="1.5" stroke-linecap="round" stroke-linejoin="round"/><rect x="0" y="0" width="59.30652862608432" height="124.18189234709739" fill="rgba(255,255,255,0.01)" stroke="rgba(255,255,255,0.01)" stroke-width="1.5" stroke-linecap="round" stroke-linejoin="round"/></g><g transform="translate(449.6532643130422, 944.1818923470973) rotate(0, 15, 0)" width="30" height="19"><text text-decoration="none" x="1.5" fill="rgb(75, 75, 75)" font-size="10pt" font-family="Lato"  y="17">User</text><text text-decoration="none" x="28.5" fill="#4b4b4b" font-size="10pt" font-family="noto_regular"  y="17"></text></g></g><g id="29rxlzwinv"><g transform="translate(655 675)"><ellipse cx="45.5" cy="30.5" rx="45.5" ry="30.5" fill="rgba(26,188,156,1)" stroke="#1abc9c" stroke-width="1.5" stroke-linecap="round" stroke-linejoin="round"/></g><g transform="translate(659.5, 696) rotate(0, 41, 9.5)" width="82" height="19"><text text-decoration="none" x="4.5" fill="rgb(255, 255, 255)" font-size="10pt" font-family="Lato"  y="17">Log&#160;</text><text text-decoration="none" x="29.5" fill="rgb(255, 255, 255)" font-size="10pt" font-family="Lato"  y="17">exercise</text><text text-decoration="none" x="77.5" fill="#4b4b4b" font-size="10pt" font-family="noto_regular"  y="17"></text></g></g><g id="2bzrxyqrtk"><g transform="translate(650 580)"><ellipse cx="45.5" cy="30.5" rx="45.5" ry="30.5" fill="rgba(26,188,156,1)" stroke="#1abc9c" stroke-width="1.5" stroke-linecap="round" stroke-linejoin="round"/></g><g transform="translate(654.5, 601) rotate(0, 41, 9.5)" width="82" height="19"><text text-decoration="none" x="2" fill="rgb(255, 255, 255)" font-size="10pt" font-family="Lato"  y="17">Log&#160;</text><text text-decoration="none" x="27" fill="rgb(255, 255, 255)" font-size="10pt" font-family="Lato"  y="17">nutrition</text><text text-decoration="none" x="80" fill="#4b4b4b" font-size="10pt" font-family="noto_regular"  y="17"></text></g></g><g id="1qe9b3f9dh"><g transform="translate(590 955)"><ellipse cx="45.5" cy="30.5" rx="45.5" ry="30.5" fill="rgba(26,188,156,1)" stroke="#1abc9c" stroke-width="1.5" stroke-linecap="round" stroke-linejoin="round"/></g><g transform="translate(604, 976) rotate(0, 31.5, 9.5)" width="63" height="19"><text text-decoration="none" x="4" fill="rgb(255, 255, 255)" font-size="10pt" font-family="Lato"  y="17">View&#160;</text><text text-decoration="none" x="35" fill="rgb(255, 255, 255)" font-size="10pt" font-family="Lato"  y="17">logs</text><text text-decoration="none" x="59" fill="#4b4b4b" font-size="10pt" font-family="noto_regular"  y="17"></text></g></g><g id="2o18dcmnl5"><g transform="translate(555 1130)"><ellipse cx="45.5" cy="30.5" rx="45.5" ry="30.5" fill="rgba(26,188,156,1)" stroke="#1abc9c" stroke-width="1.5" stroke-linecap="round" stroke-linejoin="round"/></g><g transform="translate(564.5, 1143) rotate(0, 36, 17.5)" width="72" height="35"><text text-decoration="none" x="12.5" fill="rgb(255, 255, 255)" font-size="10pt" font-family="Lato"  y="14">Modify/&#160;</text><text text-decoration="none" x="4" fill="rgb(255, 255, 255)" font-size="10pt" font-family="Lato"  y="36">delete&#160;</text><text text-decoration="none" x="44" fill="rgb(255, 255, 255)" font-size="10pt" font-family="Lato"  y="36">logs</text><text text-decoration="none" x="68" fill="#4b4b4b" font-size="10pt" font-family="noto_regular"  y="36"></text></g></g><g id="95fvnazdxg"><g transform="translate(575 820)"><ellipse cx="45.5" cy="30.5" rx="45.5" ry="30.5" fill="rgba(26,188,156,1)" stroke="#1abc9c" stroke-width="1.5" stroke-linecap="round" stroke-linejoin="round"/></g><g transform="translate(590, 833) rotate(0, 30.5, 17.5)" width="61" height="35"><text text-decoration="none" x="3.5" fill="rgb(255, 255, 255)" font-size="10pt" font-family="Lato"  y="14">Calculate</text><text text-decoration="none" x="57.5" fill="rgb(255, 255, 255)" font-size="10pt" font-family="Lato"  y="14"></text><text text-decoration="none" x="17" fill="rgb(255, 255, 255)" font-size="10pt" font-family="Lato"  y="36">data</text><text text-decoration="none" x="44" fill="#4b4b4b" font-size="10pt" font-family="noto_regular"  y="36"></text></g></g><g id="2k0u86xmu9"><g transform="translate(675 1175)"><ellipse cx="45.5" cy="30.5" rx="45.5" ry="30.5" fill="rgba(26,188,156,1)" stroke="#1abc9c" stroke-width="1.5" stroke-linecap="round" stroke-linejoin="round"/></g><g transform="translate(692, 1196) rotate(0, 28.5, 9.5)" width="57" height="19"><text text-decoration="none" x="2.5" fill="rgb(255, 255, 255)" font-size="10pt" font-family="Lato"  y="17">Sort&#160;</text><text text-decoration="none" x="30.5" fill="rgb(255, 255, 255)" font-size="10pt" font-family="Lato"  y="17">logs</text><text text-decoration="none" x="54.5" fill="#4b4b4b" font-size="10pt" font-family="noto_regular"  y="17"></text></g></g><g id="6b4v3dzl6g"><g transform="translate(775 1080)"><ellipse cx="45.5" cy="30.5" rx="45.5" ry="30.5" fill="rgba(26,188,156,1)" stroke="#1abc9c" stroke-width="1.5" stroke-linecap="round" stroke-linejoin="round"/></g><g transform="translate(783, 1101) rotate(0, 37.5, 9.5)" width="75" height="19"><text text-decoration="none" x="4" fill="rgb(255, 255, 255)" font-size="10pt" font-family="Lato"  y="17">Search&#160;</text><text text-decoration="none" x="47" fill="rgb(255, 255, 255)" font-size="10pt" font-family="Lato"  y="17">logs</text><text text-decoration="none" x="71" fill="#4b4b4b" font-size="10pt" font-family="noto_regular"  y="17"></text></g></g><g id="875nd3n8xu"><mask id="424fe" x="667" y="972" width="126" height="136" maskUnits="userSpaceOnUse"><rect x="667" y="972" width="126" height="136" fill="white" /><rect x="649.1801838198894" y="986.6982022018783" width="102" height="41" fill="black" /></mask><g mask="url(#424fe)"><path d="M 780,1095 L 680,985" fill="none" stroke="#b7b7b7" stroke-width="1.5" stroke-linecap="round" stroke-linejoin="round" stroke-dasharray="5 5 2 5"/><path d="M 680,985 L 681.5946732214195,995.3021300732696 L 690.1039840654729,987.5663929423121 Z" fill="rgb(183,183,183)" stroke="#b7b7b7" stroke-width="1.5" stroke-linecap="round" stroke-linejoin="round"/></g><g transform="translate(652.1801838198894, 989.6982022018783)" width="96" height="35"><text text-decoration="none" x="10" fill="rgb(75, 75, 75)" font-size="10pt" font-family="Lato"  y="14">&#x3C;&#x3C;extends&#x3E;&#x3E;</text><text text-decoration="none" x="86" fill="rgb(75, 75, 75)" font-size="10pt" font-family="Lato"  y="14"></text><text text-decoration="none" x="20.5" fill="rgb(75, 75, 75)" font-size="10pt" font-family="Lato"  y="36">if&#160;</text><text text-decoration="none" x="30.5" fill="rgb(75, 75, 75)" font-size="10pt" font-family="Lato"  y="36">wanted</text><text text-decoration="none" x="75.5" fill="#4b4b4b" font-size="10pt" font-family="noto_regular"  y="36"></text></g></g><g id="8z3kwc2kqt"><mask id="77514" x="647" y="997" width="66" height="196" maskUnits="userSpaceOnUse"><rect x="647" y="997" width="66" height="196" fill="white" /><rect x="626.0506858806953" y="1061.965414992955" width="102" height="41" fill="black" /></mask><g mask="url(#77514)"><path d="M 700,1180 L 660,1010" fill="none" stroke="#b7b7b7" stroke-width="1.5" stroke-linecap="round" stroke-linejoin="round" stroke-dasharray="5 5 2 5"/><path d="M 660,1010 L 656.394497662304,1019.781473284866 L 667.5887950981402,1017.1475209470223 Z" fill="rgb(183,183,183)" stroke="#b7b7b7" stroke-width="1.5" stroke-linecap="round" stroke-linejoin="round"/></g><g transform="translate(629.0506858806953, 1064.965414992955)" width="96" height="35"><text text-decoration="none" x="10" fill="rgb(75, 75, 75)" font-size="10pt" font-family="Lato"  y="14">&#x3C;&#x3C;extends&#x3E;&#x3E;</text><text text-decoration="none" x="86" fill="rgb(75, 75, 75)" font-size="10pt" font-family="Lato"  y="14"></text><text text-decoration="none" x="20.5" fill="rgb(75, 75, 75)" font-size="10pt" font-family="Lato"  y="36">if&#160;</text><text text-decoration="none" x="30.5" fill="rgb(75, 75, 75)" font-size="10pt" font-family="Lato"  y="36">wanted</text><text text-decoration="none" x="75.5" fill="#4b4b4b" font-size="10pt" font-family="noto_regular"  y="36"></text></g></g><g id="5onsn0f369"><g transform="translate(780 720)"><ellipse cx="55.00000214576721" cy="32.50000125169754" rx="55.00000214576721" ry="32.50000125169754" fill="rgba(26,188,156,1)" stroke="#1abc9c" stroke-width="1.5" stroke-linecap="round" stroke-linejoin="round"/></g><g transform="translate(797.0000021457672, 727.0000012516975) rotate(0, 38, 25.5)" width="76" height="51"><text text-decoration="none" x="11" fill="rgb(255, 255, 255)" font-size="10pt" font-family="Lato"  y="14">Calculate&#160;</text><text text-decoration="none" x="14" fill="rgb(255, 255, 255)" font-size="10pt" font-family="Lato"  y="33">exercise&#160;</text><text text-decoration="none" x="2.5" fill="rgb(255, 255, 255)" font-size="10pt" font-family="Lato"  y="55">information</text><text text-decoration="none" x="73.5" fill="#4b4b4b" font-size="10pt" font-family="noto_regular"  y="55"></text></g></g><g id="1f28rfn7jy"><g transform="translate(785 835)"><ellipse cx="55.00000214576721" cy="34.9999982714653" rx="55.00000214576721" ry="34.9999982714653" fill="rgba(26,188,156,1)" stroke="#1abc9c" stroke-width="1.5" stroke-linecap="round" stroke-linejoin="round"/></g><g transform="translate(802.0000021457672, 844.4999982714653) rotate(0, 38, 25.5)" width="76" height="51"><text text-decoration="none" x="11" fill="rgb(255, 255, 255)" font-size="10pt" font-family="Lato"  y="14">Calculate&#160;</text><text text-decoration="none" x="6.5" fill="rgb(255, 255, 255)" font-size="10pt" font-family="Lato"  y="33">nutritional&#160;</text><text text-decoration="none" x="2.5" fill="rgb(255, 255, 255)" font-size="10pt" font-family="Lato"  y="55">information</text><text text-decoration="none" x="73.5" fill="#4b4b4b" font-size="10pt" font-family="noto_regular"  y="55"></text></g></g><g id="lj0uztug8u"><g transform="translate(795 985)"><ellipse cx="45.5" cy="30.5" rx="45.5" ry="30.5" fill="rgba(26,188,156,1)" stroke="#1abc9c" stroke-width="1.5" stroke-linecap="round" stroke-linejoin="round"/></g><g transform="translate(800.5, 998) rotate(0, 40, 17.5)" width="80" height="35"><text text-decoration="none" x="2.5" fill="rgb(255, 255, 255)" font-size="10pt" font-family="Lato"  y="14">Set&#160;</text><text text-decoration="none" x="24.5" fill="rgb(255, 255, 255)" font-size="10pt" font-family="Lato"  y="14">nutrition&#160;</text><text text-decoration="none" x="24.5" fill="rgb(255, 255, 255)" font-size="10pt" font-family="Lato"  y="36">goals</text><text text-decoration="none" x="55.5" fill="#4b4b4b" font-size="10pt" font-family="noto_regular"  y="36"></text></g></g><g id="rvrhsxd2by"><mask id="0d5ab" x="827" y="892" width="26" height="106" maskUnits="userSpaceOnUse"><rect x="827" y="892" width="26" height="106" fill="white" /><rect x="789" y="934.5" width="102" height="41" fill="black" /></mask><g mask="url(#0d5ab)"><path d="M 840,985 L 840,905" fill="none" stroke="#b7b7b7" stroke-width="1.5" stroke-linecap="round" stroke-linejoin="round" stroke-dasharray="5 5 2 5"/><path d="M 840,905 L 834.25,913.695652173913 L 845.75,913.695652173913 Z" fill="rgb(183,183,183)" stroke="#b7b7b7" stroke-width="1.5" stroke-linecap="round" stroke-linejoin="round"/></g><g transform="translate(792, 937.5)" width="96" height="35"><text text-decoration="none" x="10" fill="rgb(75, 75, 75)" font-size="10pt" font-family="Lato"  y="14">&#x3C;&#x3C;extends&#x3E;&#x3E;</text><text text-decoration="none" x="86" fill="rgb(75, 75, 75)" font-size="10pt" font-family="Lato"  y="14"></text><text text-decoration="none" x="20.5" fill="rgb(75, 75, 75)" font-size="10pt" font-family="Lato"  y="36">if&#160;</text><text text-decoration="none" x="30.5" fill="rgb(75, 75, 75)" font-size="10pt" font-family="Lato"  y="36">wanted</text><text text-decoration="none" x="75.5" fill="#4b4b4b" font-size="10pt" font-family="noto_regular"  y="36"></text></g></g><g id="8xjh935ndb"><g><path d="M 580,1135 L 495,860" fill="none" stroke="#b7b7b7" stroke-width="1.5" stroke-linecap="round" stroke-linejoin="round"/><path d="M 580,1135 L 577.0743154304289,1145.0058601094086 L 588.0614458017322,1141.609837994642 Z" fill="rgb(183,183,183)" stroke="#b7b7b7" stroke-width="1.5" stroke-linecap="round" stroke-linejoin="round"/></g></g><g id="2j1e3ksgv4"><g><path d="M 615,960 L 495,860" fill="none" stroke="#b7b7b7" stroke-width="1.5" stroke-linecap="round" stroke-linejoin="round"/><path d="M 615,960 L 617.9991247419064,969.9840932243326 L 625.361245338048,961.1495485089628 Z" fill="rgb(183,183,183)" stroke="#b7b7b7" stroke-width="1.5" stroke-linecap="round" stroke-linejoin="round"/></g></g><g id="2amx3scnfn"><g><path d="M 660,720 L 495,860" fill="none" stroke="#b7b7b7" stroke-width="1.5" stroke-linecap="round" stroke-linejoin="round"/><path d="M 660,720 L 670.3506345477548,718.7585366745232 L 662.9103938935111,709.9896816177361 Z" fill="rgb(183,183,183)" stroke="#b7b7b7" stroke-width="1.5" stroke-linecap="round" stroke-linejoin="round"/></g></g><g id="ctecwh61gk"><g><path d="M 650,610 L 495,860" fill="none" stroke="#b7b7b7" stroke-width="1.5" stroke-linecap="round" stroke-linejoin="round"/><path d="M 650,610 L 659.4690245544042,605.6394449071513 L 649.6951435997119,599.579638715242 Z" fill="rgb(183,183,183)" stroke="#b7b7b7" stroke-width="1.5" stroke-linecap="round" stroke-linejoin="round"/></g></g><g id="ay1n8wio8x"><g><path d="M 575,850 L 495,860" fill="none" stroke="#b7b7b7" stroke-width="1.5" stroke-linecap="round" stroke-linejoin="round"/><path d="M 575,850 L 584.341702999659,854.6270348816322 L 582.9153035518831,843.215839299425 Z" fill="rgb(183,183,183)" stroke="#b7b7b7" stroke-width="1.5" stroke-linecap="round" stroke-linejoin="round"/></g></g><g id="5slmjea1lk"><mask id="15fb4" x="632" y="757" width="166" height="81" maskUnits="userSpaceOnUse"><rect x="632" y="757" width="166" height="81" fill="white" /><rect x="681.2956267942063" y="777.8124323308475" width="104" height="25" fill="black" /></mask><g mask="url(#15fb4)"><path d="M 785,770 L 645,825" fill="none" stroke="#b7b7b7" stroke-width="1.5" stroke-linecap="round" stroke-linejoin="round" stroke-dasharray="5 5 2 5"/><path d="M 785,770 L 795.1959923887396,772.1722352401256 L 790.9909901058752,761.4685930655615 Z" fill="rgb(183,183,183)" stroke="#b7b7b7" stroke-width="1.5" stroke-linecap="round" stroke-linejoin="round"/></g><g transform="translate(684.2956267942063, 780.8124323308475)" width="98" height="19"><text text-decoration="none" x="10.5" fill="rgb(75, 75, 75)" font-size="10pt" font-family="Lato"  y="17">&#x3C;&#x3C;includes&#x3E;&#x3E;</text><text text-decoration="none" x="87.5" fill="#4b4b4b" font-size="10pt" font-family="noto_regular"  y="17"></text></g></g><g id="2qb2mpb6ip"><mask id="8be96" x="647" y="852" width="151" height="31" maskUnits="userSpaceOnUse"><rect x="647" y="852" width="151" height="31" fill="white" /><rect x="637.9760287616537" y="853.6990411504662" width="104" height="25" fill="black" /></mask><g mask="url(#8be96)"><path d="M 785,870 L 660,865" fill="none" stroke="#b7b7b7" stroke-width="1.5" stroke-linecap="round" stroke-linejoin="round" stroke-dasharray="5 5 2 5"/><path d="M 785,870 L 793.4588877683791,876.0929536722057 L 793.9185202093911,864.6021426469051 Z" fill="rgb(183,183,183)" stroke="#b7b7b7" stroke-width="1.5" stroke-linecap="round" stroke-linejoin="round"/></g><g transform="translate(640.9760287616537, 856.6990411504662)" width="98" height="19"><text text-decoration="none" x="10.5" fill="rgb(75, 75, 75)" font-size="10pt" font-family="Lato"  y="17">&#x3C;&#x3C;includes&#x3E;&#x3E;</text><text text-decoration="none" x="87.5" fill="#4b4b4b" font-size="10pt" font-family="noto_regular"  y="17"></text></g></g></svg>